<svg width="1451" height="717" viewBox="0 0 1451 717" fill="none" xmlns="http://www.w3.org/2000/svg">
<path d="M1113.12 532.543C1016.82 384.978 639.1 558.938 414.675 664.821C355.174 692.894 290.09 717 221.984 717C131.818 673.975 108 589 29.5001 510.5C-23.5379 457.462 27.4624 362.275 1.37358 233.201C-24.7152 104.127 328.17 433.22 435.729 390.195C543.288 347.171 1093.44 210.773 1320.46 313.758C1547.48 416.743 1419.32 588.384 1372.18 669.856C1325.04 751.328 1233.5 717 1113.12 532.543Z" fill="url(#paint0_linear_221_2775)"/>
<path d="M1167.21 345.024C1034.92 160.292 607.5 510.617 207.704 510.617C118.729 510.617 245.73 418.5 207.704 289.5C168.205 155.5 -56.8587 190.998 51.5 95.4999C199.262 41.639 794.128 -67.9224 1106 61C1357.03 164.771 1385.5 95.5 1405.5 179.5C1433.48 297.031 1332.58 575.938 1167.21 345.024Z" fill="url(#paint1_linear_221_2775)"/>
<defs>
<linearGradient id="paint0_linear_221_2775" x1="-4.97142e-07" y1="460" x2="1451" y2="460" gradientUnits="userSpaceOnUse">
<stop stop-color="#A18CD1"/>
<stop offset="1" stop-color="#FBC2EB"/>
</linearGradient>
<linearGradient id="paint1_linear_221_2775" x1="-201" y1="301" x2="1534" y2="301" gradientUnits="userSpaceOnUse">
<stop stop-color="#FF3ED1"/>
<stop offset="0.01" stop-color="#FDCBF1"/>
<stop offset="1" stop-color="#D996F2"/>
</linearGradient>
</defs>
</svg>
