<svg width="1532" height="765" viewBox="0 0 1532 765" fill="none" xmlns="http://www.w3.org/2000/svg">
<path fill-rule="evenodd" clip-rule="evenodd" d="M1061.37 136.513C1163.88 143.189 1209.12 237.526 1285.51 292.866C1370.1 354.142 1503.49 383.257 1525.86 472.994C1550.35 571.284 1500.36 686.316 1397.78 743.346C1301.82 796.698 1177.96 735.16 1061.37 731.224C954.21 727.606 827.187 783.085 752.085 721.548C677.026 660.046 737.712 558.867 746.219 472.994C753.607 398.417 741.716 320.871 797.7 261.098C861.44 193.044 955.727 129.633 1061.37 136.513Z" fill="url(#paint0_linear_221_2776)"/>
<path fill-rule="evenodd" clip-rule="evenodd" d="M831.498 22.9619C911.241 35.8742 988.875 59.5158 1041.72 114.166C1091.03 165.161 1104.08 233.916 1100.42 301.089C1096.98 364.549 1068.48 422.273 1022.34 470.78C971.026 524.716 910.821 579.776 831.498 583.776C749.228 587.925 684.913 533.586 617.711 491.184C528.088 434.636 402.305 397.358 383.471 301.089C363.498 198.998 432.112 90.2481 527.667 30.9288C614.032 -22.6848 727.872 6.18237 831.498 22.9619Z" fill="url(#paint1_linear_221_2776)"/>
<path fill-rule="evenodd" clip-rule="evenodd" d="M367.582 24.6479C429.081 31.5386 475.787 78.0644 528.217 110.75C578.733 142.243 635.357 165.581 670.478 213.48C707.44 263.889 730.715 324.931 730.998 387.307C731.281 449.802 706.846 509.982 672.057 562.04C638.48 612.286 590.816 651.205 536.572 678.248C484.21 704.352 426.135 715.525 367.582 713.834C310.086 712.173 255.108 695.2 204.168 668.647C151.759 641.327 103.998 606.155 69.4254 558.413C32.6858 507.679 -4.44692 449.629 0.433974 387.307C5.26623 325.606 63.7966 284.432 95.0738 230.92C126.251 177.579 135.207 109.621 184.582 72.2473C235.616 33.6178 303.839 17.5057 367.582 24.6479Z" fill="url(#paint2_linear_221_2776)"/>
<defs>
<linearGradient id="paint0_linear_221_2776" x1="715" y1="450.5" x2="1532" y2="450.5" gradientUnits="userSpaceOnUse">
<stop stop-color="#FBC2EB"/>
<stop offset="1" stop-color="#A6C1EE"/>
</linearGradient>
<linearGradient id="paint1_linear_221_2776" x1="380" y1="292" x2="1101" y2="292" gradientUnits="userSpaceOnUse">
<stop stop-color="#F093FB"/>
<stop offset="1" stop-color="#F5576C"/>
</linearGradient>
<linearGradient id="paint2_linear_221_2776" x1="0" y1="368.5" x2="731" y2="368.5" gradientUnits="userSpaceOnUse">
<stop stop-color="#EEEEEE"/>
<stop offset="0.182292" stop-color="#F9D7B5"/>
<stop offset="0.35" stop-color="#FF8E97"/>
<stop offset="0.52" stop-color="#F2A2CF"/>
<stop offset="0.71" stop-color="#C29DF5"/>
<stop offset="0.87" stop-color="#A8B0FF"/>
<stop offset="1" stop-color="#5B6CF2"/>
</linearGradient>
</defs>
</svg>
